<?xml version="1.0" encoding="utf-8"?>
<!-- Generator: Adobe Illustrator 16.0.0, SVG Export Plug-In . SVG Version: 6.00 Build 0)  -->
<!DOCTYPE svg PUBLIC "-//W3C//DTD SVG 1.1//EN" "http://www.w3.org/Graphics/SVG/1.1/DTD/svg11.dtd">
<svg version="1.1" id="logo"
	xmlns="http://www.w3.org/2000/svg"
	xmlns:xlink="http://www.w3.org/1999/xlink" x="0px" y="0px"
	width="100px"
	height="100px"
	viewBox="0 0 100 100"
	enable-background="new 0 0 100 100"
	xml:space="preserve">
	<g>
		<g>
			<defs>
				<rect id="SVGID_1_"
					width="100"
					height="100"/>
			</defs>
			<clipPath id="SVGID_2_">
				<use xlink:href="#SVGID_1_"  overflow="visible"/>
			</clipPath>
			<g clip-path="url(#SVGID_2_)">
				<defs>
					<rect id="SVGID_3_" width="100" height="100"/>
				</defs>
				<clipPath id="SVGID_4_">
					<use xlink:href="#SVGID_3_"  overflow="visible"/>
				</clipPath>
				<path clip-path="url(#SVGID_4_)" fill-rule="evenodd" clip-rule="evenodd" fill="#231F20" d="M606.193,652.755H285.675
					c-0.915-6.006-0.852-11.035,3.6-16.261c48.777-57.241,97.281-114.717,145.854-172.138c3.097-3.66,6.133-7.384,9.588-11.552
					c-9.23-11.9-18.453-23.84-27.733-35.742c-43.049-55.216-86.194-110.358-128.983-165.775c-2.671-3.458-2.624-9.029-4.02-14.297
					h312.42c2.743,34.771,5.473,69.39,8.233,104.333h-11.143c-1.381-9.046-2.134-17.969-4.238-26.557
					c-1.938-7.9-4.54-15.848-8.242-23.058c-9.905-19.284-27.236-27.727-47.847-28.023c-52.633-0.752-105.274-0.511-157.914-0.65
					c-0.335-0.002-0.672,0.205-1.95,0.625c41.961,53.992,83.71,107.719,125.755,161.823c-47.729,56.491-95.289,112.781-143.458,169.8
					c2.041,0.229,3.294,0.495,4.55,0.497c51.396,0.027,102.794,0.15,154.189-0.032c17.147-0.062,34.147-1.757,50.558-7.428
					c24.15-8.351,35.611-27.74,43.766-50.077c0.249-0.669,0.432-1.358,0.634-2.043c2.939-9.924,2.939-9.924,14.546-8.626
					C617.979,569.167,612.117,610.738,606.193,652.755"/>
				<path clip-path="url(#SVGID_4_)" fill-rule="evenodd" clip-rule="evenodd" fill="#231F20" d="M883.485,445.217
					c-4.344,1.61-8.671,3.252-13.028,4.831c-40.097,14.563-63.35,41.155-63.994,85.838c-0.928,64.203-3.059,128.396-4.655,192.587
					c-0.21,8.786-0.626,17.585-0.332,26.361c3.024,89.734-51.218,117.281-128.844,118.13c6.146-1.989,12.354-3.824,18.438-6.006
					c37.794-13.521,60.701-43.399,62.143-83.717c2.836-79.012,6.247-158.049,6.614-237.094c0.226-49.168,20.687-80.62,66.985-95.745
					c3.698-1.208,7.121-3.28,12.964-6.021c-13.629-6.912-25.582-12.104-36.661-18.76c-26.646-16.006-41.39-39.169-42.221-71.131
					c-1.985-76.339-5.927-152.65-6.491-228.998c-0.394-53.68-22.676-89.893-76.311-108.53
					c79.166-3.214,122.052,35.91,123.243,106.031c1.121,66.24,2.833,132.46,4.288,198.688c0.038,2.033,0.131,4.06,0.029,6.087
					C802.798,385.714,821.526,429.015,883.485,445.217"/>
				<path clip-path="url(#SVGID_4_)" fill-rule="evenodd" clip-rule="evenodd" fill="#231F20" d="M67.331,443.329
					c15.926,7.75,28.624,13.723,41.134,20.066c27.816,14.104,37.633,38.955,38.611,68.082c2.71,81.064,4.184,162.176,7.487,243.217
					c2.17,53.302,22.206,78.201,72.106,94.993c3.055,1.023,6.144,1.978,8.723,4.323c-34.624-0.169-67.513-5.954-95.789-27.929
					c-28.213-21.928-31.972-53.369-32.792-85.654c-1.684-66.248-2.796-132.507-4.405-198.76c-0.312-12.807-2.353-25.565-2.702-38.378
					c-0.926-34.119-20.831-54.276-49.247-68.154c-8.384-4.089-17.335-7.006-26.315-10.568c0.808-1.402,1.143-2.838,1.811-3.015
					c56.763-14.744,77.52-53.185,76.894-109.798c-0.75-67.581,1.8-135.223,4.187-202.797c0.657-18.619,2.658-38.369,9.54-55.358
					c16.501-40.73,59.063-61.546,113.978-57.328c-54.96,18.858-76.774,56.131-77.005,110.445
					c-0.309,72.306-5.304,144.599-5.639,216.913c-0.218,47.185-22.411,75.927-64.228,92.565
					C79.355,437.916,75.145,439.908,67.331,443.329"/>
			</g>
		</g>
	</g>
</svg>
