<?xml version="1.0" encoding="utf-8"?>
<!-- Generator: Adobe Illustrator 16.0.0, SVG Export Plug-In . SVG Version: 6.00 Build 0)  -->
<!DOCTYPE svg PUBLIC "-//W3C//DTD SVG 1.0//EN" "http://www.w3.org/TR/2001/REC-SVG-20010904/DTD/svg10.dtd">
<svg version="1.0" id="Layer_1" xmlns="http://www.w3.org/2000/svg" xmlns:xlink="http://www.w3.org/1999/xlink" x="0px" y="0px"
	 width="333.333px" height="250.725px" viewBox="0 0 333.333 250.725" enable-background="new 0 0 333.333 250.725"
	 xml:space="preserve">
<g>
	<path fill-rule="evenodd" clip-rule="evenodd" d="M239.693,223.816c-51.564,0-102.802,0-154.205,0
		c-0.439-2.883-0.41-5.297,1.732-7.805c23.467-27.477,46.804-55.064,70.173-82.626c1.491-1.758,2.95-3.544,4.614-5.545
		c-4.441-5.712-8.88-11.443-13.344-17.156c-20.712-26.504-41.469-52.972-62.056-79.572c-1.285-1.66-1.261-4.334-1.933-6.863
		c50.541,0,100.29,0,150.309,0c1.319,16.69,2.633,33.308,3.96,50.08c-2.023,0-3.696,0-5.36,0c-0.665-4.342-1.025-8.625-2.039-12.747
		c-0.932-3.792-2.184-7.606-3.965-11.067c-4.766-9.256-13.104-13.31-23.02-13.451c-25.322-0.361-50.649-0.245-75.975-0.313
		c-0.161-0.001-0.322,0.099-0.937,0.301c20.187,25.916,40.273,51.705,60.501,77.675c-22.963,27.116-45.843,54.135-69.021,81.504
		c0.983,0.11,1.586,0.238,2.19,0.239c24.727,0.013,49.454,0.071,74.182-0.017c8.25-0.028,16.43-0.843,24.324-3.564
		c11.619-4.008,17.132-13.315,21.057-24.037c0.118-0.321,0.207-0.652,0.305-0.981c1.414-4.763,1.414-4.763,6.998-4.14
		C245.363,183.694,242.543,203.648,239.693,223.816z"/>
</g>
<g>
	<path fill-rule="evenodd" clip-rule="evenodd" d="M323.649,124.007c-1.169,0.433-2.334,0.873-3.506,1.298
		c-10.791,3.909-17.05,11.05-17.223,23.048c-0.25,17.239-0.824,34.476-1.253,51.712c-0.058,2.358-0.169,4.722-0.09,7.078
		c0.813,24.095-13.784,31.491-34.677,31.72c1.654-0.534,3.325-1.027,4.963-1.613c10.172-3.63,16.337-11.653,16.725-22.479
		c0.764-21.216,1.682-42.438,1.78-63.662c0.061-13.203,5.567-21.648,18.028-25.709c0.994-0.324,1.916-0.881,3.488-1.617
		c-3.668-1.855-6.885-3.25-9.866-5.037c-7.172-4.298-11.14-10.518-11.363-19.1c-0.534-20.498-1.595-40.988-1.747-61.487
		c-0.105-14.414-6.103-24.138-20.538-29.143c21.308-0.863,32.849,9.644,33.169,28.472c0.302,17.785,0.763,35.566,1.154,53.35
		c0.01,0.545,0.035,1.09,0.008,1.634C301.933,108.03,306.974,119.656,323.649,124.007z"/>
	<path fill-rule="evenodd" clip-rule="evenodd" d="M20.832,123.618c4.287,2.081,7.704,3.685,11.071,5.389
		c7.486,3.787,10.128,10.459,10.391,18.28c0.729,21.767,1.126,43.546,2.015,65.306c0.584,14.313,5.976,20.999,19.406,25.508
		c0.822,0.274,1.653,0.53,2.348,1.16c-9.319-0.045-18.17-1.599-25.78-7.499c-7.593-5.888-8.604-14.33-8.826-22.999
		c-0.453-17.788-0.751-35.58-1.186-53.369c-0.083-3.438-0.633-6.864-0.727-10.305c-0.249-9.161-5.606-14.574-13.254-18.301
		c-2.256-1.098-4.666-1.881-7.083-2.838c0.218-0.376,0.308-0.762,0.487-0.809c15.278-3.959,20.864-14.281,20.695-29.482
		c-0.202-18.146,0.485-36.309,1.126-54.453c0.177-5,0.716-10.303,2.568-14.864C38.526,13.405,49.981,7.815,64.76,8.948
		c-14.792,5.064-20.663,15.072-20.725,29.656c-0.083,19.415-1.428,38.826-1.518,58.243c-0.059,12.67-6.031,20.388-17.286,24.854
		C24.069,122.165,22.935,122.7,20.832,123.618z"/>
</g>
</svg>
